<svg xmlns="http://www.w3.org/2000/svg" width="32" height="32" viewBox="0 0 32 32"><g transform="translate(497.54 -981.665)"><path fill="#ff5a67" stroke="#373449" stroke-linecap="round" stroke-linejoin="round" d="m -469.03906,-35.197266 c 0,0 -3,4 -7,3 -0.84983,1.1958 -2.45821,0.71 -2,-1 -3.85528,-0.5771 -7.22293,0.666997 -7.99219,4.154297 l 0.19531,0.355469 a 9.5,9.5 0 0 1 0.29688,-0.0098 9.5,9.5 0 0 1 9.5,9.5 9.5,9.5 0 0 1 -1.67578,5.384766 l 0.0469,0.08594 c 2.5094,0.2608 6.03095,-1.346762 6.62891,-8.482422 -2,0 -2,-2 0,-2 2,0 2.74266,-3.667782 3,-5.988282 -1,0.8441 -3,1 -4,1 1.84513,-1.6063 3,-4 3,-6 z" transform="translate(0 1020.362)"/><circle cx="-485.54" cy="1001.165" r="9.5" fill="none" stroke="#373449"/><circle cx="-485.54" cy="1001.165" r="1" fill="#373449"/><path fill="none" stroke="#373449" d="m -481.53973,997.16494 -4,3.99996 -6,0"/><path fill="none" stroke="#373449" d="M-483.53973 997.16494l2 0 0 2M-490.62552 1002.5843l-1.41421-1.4142 1.41421-1.41416"/></g></svg>